<svg width="500" height="500" viewBox="0 0 500 500" fill="none" xmlns="http://www.w3.org/2000/svg">
<rect width="500" height="500" fill="white"/>
<path d="M99.5 99.5H399.5V312C399.5 360.325 360.325 399.5 312 399.5H187C138.675 399.5 99.5 360.325 99.5 312V99.5Z" fill="white" stroke="black" stroke-width="25"/>
<path d="M292 304.8L217.6 206C216.133 204.267 214.733 202.467 213.4 200.6C212.067 198.733 210.667 196.8 209.2 194.8H209L209.6 272.6C209.6 276.067 209.533 279.467 209.4 282.8C209.4 286 209.267 289 209 291.8C211.267 291.667 213.733 291.533 216.4 291.4C219.2 291.133 221.6 291 223.6 291V302H184V293.2C189.6 293.2 193.267 291.667 195 288.6C196.733 285.533 197.6 281.6 197.6 276.8V187.2C197.6 184.533 197.6 181.933 197.6 179.4C197.6 176.733 197.667 174.333 197.8 172.2C195.667 172.333 193.267 172.467 190.6 172.6C188.067 172.733 185.8 172.867 183.8 173V162H210.2L280.6 254.6C282.733 257.667 284.733 260.467 286.6 263C288.6 265.4 290.4 267.733 292 270H292.2L292.4 187.8C292.4 184.867 292.4 182.067 292.4 179.4C292.533 176.6 292.733 174.2 293 172.2C290.6 172.333 288.067 172.467 285.4 172.6C282.733 172.733 280.4 172.867 278.4 173V162H318V170.8C313.733 170.933 310.6 171.867 308.6 173.6C306.733 175.2 305.533 177.6 305 180.8C304.6 184 304.4 188.067 304.4 193L304.2 304.8H292Z" fill="black"/>
<path d="M173 327H326.2V337H173V327Z" fill="black"/>
</svg>
